<svg width="940" height="940" viewBox="0 0 940 940" fill="none" xmlns="http://www.w3.org/2000/svg">
<circle cx="470" cy="470" r="470" fill="black"/>
<path d="M271.962 726C239.951 726 214 700.049 214 668.038L214 413.648V413.648C246.012 413.648 271.962 439.598 271.962 471.61V726V726Z" fill="white"/>
<path d="M214 371.786C214 339.775 239.951 313.824 271.962 313.824H366.956V371.786H214V371.786Z" fill="white"/>
<path d="M424.918 371.786L366.956 313.824V371.786H424.918Z" fill="white"/>
<path d="M424.918 313.824L482.88 371.786V313.824H424.918Z" fill="#EA0000"/>
<path d="M482.88 313.824H626.176V371.786H482.88V313.824Z" fill="#EA0000"/>
<path d="M568.214 457.119V313.824H626.176V457.119H568.214Z" fill="#EA0000"/>
<path d="M568.214 457.12L626.176 515.082V457.12H568.214Z" fill="#EA0000"/>
<path d="M626.176 574.654L568.214 516.692V574.654H626.176Z" fill="white"/>
<path d="M568.214 726V574.654H626.176V726H568.214Z" fill="white"/>
<path d="M313.824 668.038H626.176V726H313.824V668.038Z" fill="white"/>
<path d="M626.175 363.735L476.442 513.468L426.53 463.556L576.263 313.823L626.175 363.735Z" fill="#EA0000"/>
<path d="M313.824 271.962C313.824 239.951 339.774 214 371.786 214H668.038V271.962H313.824V271.962Z" fill="white"/>
<path d="M668.038 556.943V214V214C700.049 214 726 239.951 726 271.962V556.943H668.038Z" fill="white"/>
<path d="M668.038 556.944L726 614.906V556.944H668.038Z" fill="white"/>
</svg>
